<svg xmlns="http://www.w3.org/2000/svg" width="900" height="463" viewBox="0 0 900 463" role="img" aria-labelledby="title desc">
<title id="title">Variação em 7 dias: Momentum de Cartas 87-89 no EA FC em 31/05 — PC</title>
<desc id="desc">Gráfico gerado a partir da tabela publicada neste artigo.</desc>
<rect width="100%" height="100%" rx="20" fill="#0f172a"/>
<text x="28" y="42" fill="#f8fafc" font-family="system-ui,sans-serif" font-size="23" font-weight="700">Variação em 7 dias</text>
<text x="28" y="70" fill="#94a3b8" font-family="system-ui,sans-serif" font-size="15">Dados do recorte publicado no artigo</text>
<text x="28" y="117" fill="#e2e8f0" font-family="system-ui,sans-serif" font-size="16">Paul Onuachu</text>
<rect x="285" y="95" width="480" height="28" rx="7" fill="#22c55e"/>
<text x="775" y="116" fill="#f8fafc" font-family="system-ui,sans-serif" font-size="15" font-weight="700">+84.0%</text>
<text x="28" y="175" fill="#e2e8f0" font-family="system-ui,sans-serif" font-size="16">Marcelo</text>
<rect x="285" y="153" width="290" height="28" rx="7" fill="#22c55e"/>
<text x="585" y="174" fill="#f8fafc" font-family="system-ui,sans-serif" font-size="15" font-weight="700">+50.8%</text>
<text x="28" y="233" fill="#e2e8f0" font-family="system-ui,sans-serif" font-size="16">Míchel Salgado</text>
<rect x="285" y="211" width="289" height="28" rx="7" fill="#22c55e"/>
<text x="584" y="232" fill="#f8fafc" font-family="system-ui,sans-serif" font-size="15" font-weight="700">+50.5%</text>
<text x="28" y="291" fill="#e2e8f0" font-family="system-ui,sans-serif" font-size="16">Julia Grosso</text>
<rect x="285" y="269" width="286" height="28" rx="7" fill="#22c55e"/>
<text x="581" y="290" fill="#f8fafc" font-family="system-ui,sans-serif" font-size="15" font-weight="700">+50.0%</text>
<text x="28" y="349" fill="#e2e8f0" font-family="system-ui,sans-serif" font-size="16">Charles De Ketelaere</text>
<rect x="285" y="327" width="219" height="28" rx="7" fill="#22c55e"/>
<text x="514" y="348" fill="#f8fafc" font-family="system-ui,sans-serif" font-size="15" font-weight="700">+38.4%</text>
<text x="28" y="407" fill="#e2e8f0" font-family="system-ui,sans-serif" font-size="16">Marcus Pedersen</text>
<rect x="285" y="385" width="204" height="28" rx="7" fill="#22c55e"/>
<text x="499" y="406" fill="#f8fafc" font-family="system-ui,sans-serif" font-size="15" font-weight="700">+35.7%</text>
</svg>
